<svg xmlns="http://www.w3.org/2000/svg" viewBox="0 0 664.82 377.98"><defs><style>.cls-1{fill:#030202;}.cls-2{fill:#7f8183;}.cls-3{fill:#f0b62e;}.cls-4{fill:#6b4e2e;}.cls-5{fill:#b59140;}.cls-6{fill:#fcef2c;}.cls-7{fill:#cc2129;}.cls-8{fill:#6eb452;}.cls-9{fill:#f2f2f2;}.cls-10{fill:#efb62e;}</style></defs><title>Recurso 1</title><g id="Capa_2" data-name="Capa 2"><g id="Capa_1-2" data-name="Capa 1"><path class="cls-1" d="M117.26,17.3A212.8,212.8,0,0,1,205.72.09a218.16,218.16,0,0,1,46.73,6.37c.77.19,1.56.31,2.34.46a1,1,0,0,0,.88.18.69.69,0,0,0,.83.3,6.4,6.4,0,0,0,.65.29,194.87,194.87,0,0,1,20.63,7,6.65,6.65,0,0,0,2.58.33q33.42,0,66.85,0a80.15,80.15,0,0,0,10.28-.18,2,2,0,0,0,1.71,0,4.77,4.77,0,0,0,3.12,0,1,1,0,0,0,.93,0,10.53,10.53,0,0,0,4.47,0,1.37,1.37,0,0,0,1.29,0,46.09,46.09,0,0,0,1.92,0,6.09,6.09,0,0,0,3.36-.08c.48.09.95.37,1.44.05a.86.86,0,0,0,.91,0h0c.25.3.51.24.76,0a1.23,1.23,0,0,0,1.22,0,16,16,0,0,0,5.31,0,.93.93,0,0,0,.9,0,.73.73,0,0,0,1,0,37.61,37.61,0,0,0,7.65,0,.9.9,0,0,0,1,0,1.69,1.69,0,0,0,1.41,0,44.09,44.09,0,0,0,9.33,0,1.44,1.44,0,0,0,1.47,0,6.7,6.7,0,0,0,3.89,0h0c2,.47,4,.18,6,.28a1.16,1.16,0,0,0,1,0,31.68,31.68,0,0,0,4.8,1.07,3.54,3.54,0,0,0,.6.38C432.15,20,438.16,26.47,441,35.9a1.3,1.3,0,0,0,0,.48c2.18,7.75.79,14.95-3.27,21.79a28.68,28.68,0,0,1-7.82,8.55,23.27,23.27,0,0,1-8.2,4.07,42.52,42.52,0,0,1-10,1c-18.46-.07-36.93,0-55.39,0a5.08,5.08,0,0,0-2.62.26,3.4,3.4,0,0,0,.89,1.93c1.32,2.08,2.8,4.06,4.05,6.18a4.31,4.31,0,0,0,4.24,2.29c25.57-.08,51.15,0,76.72-.08,1.59,0,3.18.39,4.76,0h.92a2.49,2.49,0,0,0,1.95,0h.94a37.29,37.29,0,0,0,8.18,0h1.41a8.43,8.43,0,0,0,3.87,0h1.89a8.57,8.57,0,0,0,3.87,0h3.33a.93.93,0,0,0,1,0h.92a6.6,6.6,0,0,0,3.39,0h1.42a5.11,5.11,0,0,0,2.9,0h3.34a6.17,6.17,0,0,0,2.6.1,30.55,30.55,0,0,1,6.41.22,28.9,28.9,0,0,1,13.54,6,28.36,28.36,0,0,1,9.22,13.73,7.66,7.66,0,0,0,.54,1.07,5.7,5.7,0,0,0,.32,2.35,28.46,28.46,0,0,1-21.75,32.56,36.24,36.24,0,0,1-8.11.69q-52.56,0-105.12,0h-2.16c-.83,0-1.06.48-1.06,1.25,0,1.34,1,1.43,1.94,1.7,7.87,2.24,14.45,6.31,19,13.35a43.76,43.76,0,0,1,2.65,7.17,13.79,13.79,0,0,0-.06,1.43c.37,6.66-2.13,12.16-6.82,16.75A33.82,33.82,0,0,1,379.6,189a8.6,8.6,0,0,0-2.93,1c2.27,4.31,2.12,8.8.54,13.25a7.75,7.75,0,0,0,2.92.27c5.91.15,11.81,0,17.73.21,7.65.29,15.32.1,23,.12,10.67,1.83,18.1,7.74,22.39,17.67.44,1,.36,2.18,1.09,3.07,0,.32.06.64.13.95a28.2,28.2,0,0,1-26.27,34.65c-5.1.27-10.23.1-15.34.14-2.37,0-2.41,0-2,2.23a46.87,46.87,0,0,1,.74,11.7c-.56,9.16-3.26,17.6-8.94,24.9-6.53,8.37-14.93,13.11-25.79,12.85-1.6,0-3.2-.05-4.8,0a14.05,14.05,0,0,0-10.88,5.24,13.85,13.85,0,0,0,2.34,20.05c4.25,3.3,4.54,9.63-.85,12.7a97.8,97.8,0,0,1-10.88,5.57,82.51,82.51,0,0,1-32.07,6.1H92.13a90,90,0,0,1-12.91-.88c-13.65-2-26.07-6.87-36.9-15.53a7.33,7.33,0,0,0-2.49-1.81c-.92-1-1.8-2-2.76-3A52.75,52.75,0,0,1,23.91,319a13.64,13.64,0,0,0-.55-1.32c-.4-2.35-.81-4.69-1.19-7a1.9,1.9,0,0,0-1.06-1.47c-1.81-1-3.6-2-5.4-3a22,22,0,0,0-3-2.75c-8-8-12-17.75-12.64-28.94A47.88,47.88,0,0,1,1.9,257.65a41,41,0,0,1,13.4-20.41c-1-1.57-2.51-2.65-3.51-4.16a43.83,43.83,0,0,1-2.35-4.7A1.61,1.61,0,0,0,9.08,227a25.43,25.43,0,0,1,.5-7.18,1.85,1.85,0,0,0,.53-1.41L12,215.09a42.17,42.17,0,0,1,6.34-5.75A43.94,43.94,0,0,1,26,206a36.63,36.63,0,0,1-2.64-5.86c-.12-3.19-.21-6.39,1.26-9.38.42-.86-.12-1.13-.84-1.28a44.5,44.5,0,0,1-11.37-4.28,52.09,52.09,0,0,1-5.1-3.9c-5.29-5-8-11-7.15-18.37a27.89,27.89,0,0,1,2.26-7.23,38.61,38.61,0,0,1,4.49-5.56,34.11,34.11,0,0,1,14.51-8c2-.56,2-.56,2.1-2.54a120,120,0,0,1,2.32-17.28c.63-3,1.37-6,2.05-9.07,1-2.93,2-5.88,3.1-8.79,7.34-19.92,19-37,34-51.89A171.71,171.71,0,0,1,105.17,23.3c.63-.34,1.22-.74,1.84-1.11A5.87,5.87,0,0,0,109.42,21a7.28,7.28,0,0,0,2.35-1.12.41.41,0,0,0,.5-.24l2.44-1.19A6.49,6.49,0,0,0,117.26,17.3ZM14.8,168c1.79,3.54,5,5.29,8.47,6.62a34.83,34.83,0,0,0,12.49,1.86H367a30.25,30.25,0,0,0,12.84-2.53c2.83-1.3,5.66-2.71,6.95-5.88a5.75,5.75,0,0,0-1-6.47,16.32,16.32,0,0,0-6.83-4.72c-4.23-1.75-8.66-2-13.18-2q-153.75,0-307.52,0c-8.4,0-16.79,0-25.19,0a28.08,28.08,0,0,0-12.71,3,14,14,0,0,0-4.4,3.28C14.26,163.17,13.53,165.42,14.8,168Zm322,145.28c.46-.45.78-1-.11-1.21a11.16,11.16,0,0,0-2.39-.08l-293.51.07c-4.35,0-4.55-.75-2.88,4,3,8.62,8.73,15.19,16.15,20.32,11,7.62,23.35,11,36.65,11q110.15,0,220.31,0a68.18,68.18,0,0,0,18.24-2.55,63.73,63.73,0,0,0,7.69-2.7c1-.4,1.15-.9.61-1.83-.76-1.3-1.41-2.67-2.11-4a14.71,14.71,0,0,1-1-2.59C333.24,326.72,333.52,319.82,336.84,313.27Zm-32.12-37.8c.53-.35,1.08-.68,1.61-1,12.89-8.77,25.8-17.52,38.65-26.37a10.57,10.57,0,0,1,6.4-2c21.2.08,42.4.05,63.59.05.8,0,1.6,0,2.4,0a14.14,14.14,0,0,0,2.54-27.93,20.71,20.71,0,0,0-4.77-.32H41.25a31.56,31.56,0,0,0-12.87,2.43,10.87,10.87,0,0,0-4.68,3.23c-1.18,1.21,0,1.89.67,2.51a18.34,18.34,0,0,0,7.69,3.76A40.28,40.28,0,0,0,43,230.91q90.12,0,180.23,0a7.78,7.78,0,0,1,4.67,1.4q29.52,20.19,59.09,40.28c3.24,2.21,6.5,4.39,9.7,6.65a2,2,0,0,0,2.78,0C301.16,277.88,303.11,276.91,304.72,275.47ZM124.27,30.18l0,0a3.29,3.29,0,0,0-1.8.55C101,40.42,82.12,53.61,66.77,71.54,50.71,90.32,40.62,111.8,38,136.54c-.51,4.83-.54,4,3.4,4q159.66,0,319.34,0c.48,0,1,0,1.44,0,1.67-.07,1.77-.09,1.6-1.85-.32-3.42-.69-6.84-1.18-10.24-.55-3.91-.51-3.38,2.91-3.38q60.57,0,121.16,0c1.1,0,2.24.26,3.3-.27a14,14,0,0,0,12.47-12.31,14.17,14.17,0,0,0-9.88-15.19,18.89,18.89,0,0,0-5.7-.65q-66,0-132,0c-3.55,0-2.79.44-4.54-2.74a125.76,125.76,0,0,0-14.17-20.78c-4-4.69-8.14-9.25-12.19-13.89-.37-.42-1.14-.73-.71-1.67h88.23c1,0,1.92,0,2.88,0a14.1,14.1,0,0,0,12.8-18.21c-1.93-6.21-7.29-10-14.19-10H281.24a7.14,7.14,0,0,0-1.91.06c-1.91.51-3.58-.07-5.32-.79a186.24,186.24,0,0,0-53.36-13.2,199.71,199.71,0,0,0-41.91.27A189.34,189.34,0,0,0,128,28.4a8,8,0,0,0-2.78,1.34A.77.77,0,0,0,124.27,30.18Zm216.5,238.15a1.42,1.42,0,0,0-.46.12l-40.17,27.42c-2,1.38-2,1.37-4.17-.07q-7.34-5-14.67-10l-27.51-18.78a3.1,3.1,0,0,0-1.71-.78c-.68-.56-1.31-1.18-2-1.67-9-6.13-18-12.23-26.94-18.38a5.89,5.89,0,0,0-3.56-1.08c-7.84,0-15.67,0-23.5,0q-80.7,0-161.4,0a16,16,0,0,0-11,3.85c-6.19,5.45-8.93,12.48-9.21,20.59a28.47,28.47,0,0,0,3,16.27C21.21,293.76,27.22,298,36.5,298q164.93-.18,329.84,0c6.65,0,11.66-2.8,15.47-8.05,5-6.85,6.11-14.61,5.38-22.81,0-.28-.28-.55-.42-.82.31-1.39-.52-2.6-.64-3.94-.16-1.76-.51-1.93-2.35-1.93H353.65a3.75,3.75,0,0,0-2.25.61C347.87,263.47,344.31,265.9,340.77,268.33Zm-140-64.9h77q34.43,0,68.86,0a33,33,0,0,0,9.5-1.06,15.55,15.55,0,0,0,6.74-3.51c1.58-1.53,1.62-2.25.05-3.76a16.28,16.28,0,0,0-7.2-3.65,36.71,36.71,0,0,0-9.75-1H55.91c-1.28,0-2.57,0-3.84,0a25,25,0,0,0-11,2.85,9.34,9.34,0,0,0-2.82,2.21c-1,1.17-.94,1.79.12,2.91a12.92,12.92,0,0,0,4.59,3,31.57,31.57,0,0,0,12.22,1.95Q128,203.4,200.78,203.43Z"/><path class="cls-2" d="M367.83,363.67c-.28.33-.57.66-.84,1-.15.14-.29.29-.43.43a79.5,79.5,0,0,1-34.5,12.12c-9.17.89-18.36.42-27.55.48-16.54.09-33.09.05-49.64.05q-23.73,0-47.45,0H156.1c-.71,0-1.43.11-2.14.17l-.94.06a11.56,11.56,0,0,0-4.83-.05,4.68,4.68,0,0,0-2.35,0,1,1,0,0,0-1,0h-1a1.45,1.45,0,0,0-1.44,0,4.4,4.4,0,0,0-1.84-.13,3.39,3.39,0,0,0-2,0h-.9a11.41,11.41,0,0,0-3.91,0c-6.22-.16-12.44-.24-18.66,0l-1,0a12.75,12.75,0,0,0-4.27,0,2.3,2.3,0,0,0-1.49,0,71.06,71.06,0,0,0-9.68-.06,1.93,1.93,0,0,0-1.34-.12c-3.68-.71-7.44-.84-11.12-1.63a75.65,75.65,0,0,1-26.48-10.8,59.26,59.26,0,0,1-19.47-20.47c-.23-.42-.55-.8-.42-1.33a7.33,7.33,0,0,1,2.49,1.81c10.83,8.66,23.25,13.57,36.9,15.53a90,90,0,0,0,12.91.88H309.72a82.51,82.51,0,0,0,32.07-6.1A97.8,97.8,0,0,0,352.67,350c5.39-3.07,5.1-9.4.85-12.7a13.85,13.85,0,0,1-2.34-20.05A14.05,14.05,0,0,1,362.06,312c1.6-.07,3.2,0,4.8,0,10.86.26,19.26-4.48,25.79-12.85,5.68-7.3,8.38-15.74,8.94-24.9a46.87,46.87,0,0,0-.74-11.7c-.41-2.19-.37-2.21,2-2.23,5.11,0,10.24.13,15.34-.14a28.2,28.2,0,0,0,26.27-34.65c-.07-.31-.09-.63-.13-.95,1.57.31,2.56,1.51,3.68,2.47,3.33,2.86,5.53,6.55,7.44,10.44a79.52,79.52,0,0,1,2,8.64,4.6,4.6,0,0,0,0,1.92,1.94,1.94,0,0,0,.08,1.53c0,.47,0,.94,0,1.41a3.17,3.17,0,0,0-.58,2.35c0,.31-.06.63-.1.94a2.8,2.8,0,0,0-.52,1.92l-.24,1.33c-.76.34-.81,1.14-1.11,1.77-5.14,10.77-13.6,16.62-25.59,17-4.95.17-9.9,0-14.86.07-1.82,0-1.85.14-1.59,1.95s.6,3.79.7,5.7c.44,7.92-.54,15.61-3.95,22.87-.26.57-.62,1.19.19,1.65a42.73,42.73,0,0,1-3.3,5.31c-.64-.43-.59,0-.56.44l0,0c-.6.12-.65.51-.49,1l.05,0c-1.16-.22-1.46.81-2,1.43A30.93,30.93,0,0,1,383.88,328c-3.17.48-6.37.21-9.56.23a14.1,14.1,0,0,0-12.65,20.54,16.5,16.5,0,0,0,4.48,5.23,7.28,7.28,0,0,1,2.78,5.36A9.91,9.91,0,0,1,367.83,363.67Z"/><path class="cls-1" d="M547.09,203.4a50.63,50.63,0,0,0,7.18.14q34.44,0,68.87,0c13,0,22.83,6.63,27.72,18.72.12.29.3.56.45.84a1.84,1.84,0,0,0,.46,1.42,4,4,0,0,0,.21,1.64,27.64,27.64,0,0,1-5.37,23.08c-6,7.67-14,11.1-23.61,11.1q-65.37,0-130.73,0A30,30,0,0,1,477.71,257a1.72,1.72,0,0,0-1.12-.33c-.67-.54-1.33-1.11-2-1.62a28.12,28.12,0,0,1-6.63-6.7c-1-1.49-1.91-3.07-2.86-4.6-.27-.83-.52-1.66-.81-2.49a28.27,28.27,0,0,1,8-30.51l2.14-1.89c3.54-2.16,7.2-4.08,11.36-4.74,2-.33,4.1-.47,6.15-.7a10.22,10.22,0,0,0,3.78,0h.25c.63,0,1.26.14,1.89.14q11.94,0,23.87,0a12.82,12.82,0,0,0,3.33-.14,6.23,6.23,0,0,0,2.88,0c5.6.23,11.2.25,16.8,0a1.76,1.76,0,0,0,1.44,0A1.08,1.08,0,0,0,547.09,203.4Zm10.55,14.42q-33.35,0-66.71,0a14.12,14.12,0,0,0-2.43,28,22.13,22.13,0,0,0,4.06.23H622.63c1,0,1.92,0,2.88-.07a14.12,14.12,0,0,0-1.39-28.18Q590.88,217.8,557.64,217.82Z"/><path class="cls-2" d="M476.59,256.64a1.72,1.72,0,0,1,1.12.33,30,30,0,0,0,14.56,3.37q65.37,0,130.73,0c9.63,0,17.65-3.43,23.61-11.1A27.64,27.64,0,0,0,652,226.16a4,4,0,0,1-.21-1.64c1.74.52,2.84,2,4.25,2.95h0a9,9,0,0,0,2.37,2.42v0a1.94,1.94,0,0,0,1,1.44h0a36.35,36.35,0,0,1,4.85,11.32,41.75,41.75,0,0,1,.59,4.95c0,.33,0,.66,0,1s0,.63,0,.94a22.39,22.39,0,0,1-.74,4.74c-.49.58-.35,1.3-.43,2-1.27,2.56-2.09,5.34-3.85,7.68-1.22,1.63-2.86,3.05-3.09,5.29,0,.36-.37.87-.81.7-1.37-.57-2,.51-2.91,1.13a26.39,26.39,0,0,1-15.38,5.31c-11.83.12-23.65,0-35.48.09-2,0-4-.34-5.94.32a5.91,5.91,0,0,0-2.51-.16l-1,0-1.42-.07-1.47.06a17.43,17.43,0,0,0-4.27,0,3.87,3.87,0,0,0-2,0,59.7,59.7,0,0,0-9.55.06,2.24,2.24,0,0,0-1.49-.08,54.11,54.11,0,0,0-7.64,0,3.69,3.69,0,0,0-2,0l-1.41,0-1,0H559.1a5.39,5.39,0,0,0-2.43,0,3.68,3.68,0,0,0-1.92.07c-6.86-.38-13.73-.2-20.6-.08a12.89,12.89,0,0,0-4.38.07,88.07,88.07,0,0,0-10.53-.09.5.5,0,0,0-.46,0l-16.3,0a1.72,1.72,0,0,0-1.42,0c-1-.21-2-.44-3-.64-9.93-1.91-16.72-7.75-21-16.76A3.44,3.44,0,0,1,476.59,256.64Z"/><path class="cls-3" d="M125.19,29.74A8,8,0,0,1,128,28.4a189.34,189.34,0,0,1,50.77-12.77,199.71,199.71,0,0,1,41.91-.27A186.24,186.24,0,0,1,274,28.56c1.74.72,3.41,1.3,5.32.79a7.14,7.14,0,0,1,1.91-.06H413c6.9,0,12.26,3.83,14.19,10a14.1,14.1,0,0,1-12.8,18.21c-1,0-1.92,0-2.88,0H323.26c-.43.94.34,1.25.71,1.67,4,4.64,8.2,9.2,12.19,13.89A125.76,125.76,0,0,1,350.33,93.9c1.75,3.18,1,2.74,4.54,2.74q66,0,132,0a18.89,18.89,0,0,1,5.7.65,14.17,14.17,0,0,1,9.88,15.19A14,14,0,0,1,490,124.75c-1,0-2.08-.1-3.11-.1q-63.57,0-127.14.08-133.62,0-267.24,0H90.55c-.86,0-1.41-.34-1.17-1.32a46.8,46.8,0,0,0,.61-6.9c.52-5.89,1.51-11.69,2.55-17.49a150.61,150.61,0,0,1,5.91-22.44,138.79,138.79,0,0,1,22.09-41.19c1.3-1.65,3.26-2.9,3.69-5.19l0,0A.83.83,0,0,0,125.19,29.74Zm42.28,5.76C160.14,34.84,153,42,153.13,49.66a14.39,14.39,0,1,0,28.78-.07A13.94,13.94,0,0,0,167.47,35.5ZM291.11,89.24c0-4.94-3.66-8.44-8.62-8.64-5.34-.23-9,4.81-8.89,8.69a8.84,8.84,0,0,0,8.8,8.83A8.7,8.7,0,0,0,291.11,89.24Zm-89.64,9.19A5.34,5.34,0,0,0,196,103.8a5.69,5.69,0,0,0,5.41,5.34,5.34,5.34,0,0,0,5.29-5.35A5.11,5.11,0,0,0,201.47,98.43Zm41.84-43.9c2.86,0,4.52-2,4.71-4.93.15-2.24-2.32-4.76-4.72-4.81a5.16,5.16,0,0,0-5.06,5.05A5,5,0,0,0,243.31,54.53ZM117.29,85a4.29,4.29,0,0,0-4.46,4.27,4.36,4.36,0,0,0,4.46,4.57,4.43,4.43,0,0,0,4.36-4.46A4.29,4.29,0,0,0,117.29,85Z"/><path class="cls-4" d="M252.08,266.28a3.1,3.1,0,0,1,1.71.78l27.51,18.78q7.33,5,14.67,10c2.13,1.44,2.15,1.45,4.17.07l40.17-27.42a1.42,1.42,0,0,1,.46-.12c.2.86.91.77,1.53.78a41.31,41.31,0,0,1,8.5,1.23c3.5.8,7,1.66,10.5,2.36a25.12,25.12,0,0,0,11.6-.08,44,44,0,0,0,9.78-4.44c1.32-.73,2.53-1.68,4.09-1.89.14.27.4.54.42.82.73,8.2-.41,16-5.38,22.81C378,295.17,373,298,366.34,298q-164.92-.06-329.84,0c-9.28,0-15.29-4.26-19.14-12.17a28.47,28.47,0,0,1-3-16.27,15.28,15.28,0,0,1,2.63.1c3.7.84,7.31.17,10.92-.49a101,101,0,0,0,12.2-3.48c4.24-1.34,8.38-1.71,12.61.1,2.34,1,4.83,1.69,7.26,2.46a31.15,31.15,0,0,0,17.25.57,41.77,41.77,0,0,0,8.29-3.13,44.92,44.92,0,0,1,9.68-3.48,6.21,6.21,0,0,1,2.84-.1,28.85,28.85,0,0,1,6.13,2c2.16,1.05,4.34,2.05,6.52,3a32.2,32.2,0,0,0,23.82,1.28c3.81-1.21,7.58-2.53,11.37-3.79a19,19,0,0,1,14,.69c2.7,1.18,5.41,2.37,8.11,3.58a28.38,28.38,0,0,0,17.07,2.15c4.3-.79,8.22-2.56,12.21-4.21,3.49-1.44,7-2.8,10.87-2.5a30.51,30.51,0,0,1,9,2.28c3.11,1.24,6.2,2.58,9.42,3.54a26.73,26.73,0,0,0,20.7-1.68C248.88,267.75,250.49,267,252.08,266.28Z"/><path class="cls-5" d="M124.23,30.2c-.43,2.29-2.39,3.54-3.69,5.19A138.79,138.79,0,0,0,98.45,76.58,150.61,150.61,0,0,0,92.54,99c-1,5.8-2,11.6-2.55,17.49a46.8,46.8,0,0,1-.61,6.9c-.24,1,.31,1.3,1.17,1.32h1.92q133.62,0,267.24,0,63.57,0,127.14-.08c1,0,2.07.06,3.11.1-1.07.53-2.21.27-3.31.27q-60.58,0-121.16,0c-3.42,0-3.46-.53-2.91,3.38.49,3.4.86,6.82,1.18,10.24.17,1.76.07,1.78-1.6,1.85-.48,0-1,0-1.44,0q-159.68,0-319.34,0c-3.94,0-3.91.87-3.4-4,2.64-24.74,12.73-46.22,28.79-65C82.12,53.61,101,40.42,122.43,30.75A3.29,3.29,0,0,1,124.23,30.2Z"/><path class="cls-6" d="M23.7,223.49a10.87,10.87,0,0,1,4.68-3.23,31.56,31.56,0,0,1,12.87-2.43H415.14a20.71,20.71,0,0,1,4.77.32,14.14,14.14,0,0,1-2.54,27.93c-.8,0-1.6,0-2.4,0-21.19,0-42.39,0-63.59-.05a10.57,10.57,0,0,0-6.4,2c-12.85,8.85-25.76,17.6-38.65,26.37-.53.36-1.08.69-1.61,1a3.88,3.88,0,0,1-2.84-1l-20-13.65q-25.14-17.16-50.27-34.35a10.48,10.48,0,0,0-6.24-1.93q-99.06.08-198.13,0H25.09A1.27,1.27,0,0,1,23.7,223.49Z"/><path class="cls-3" d="M336.84,313.27c-3.32,6.55-3.6,13.45-2.31,20.5a14.71,14.71,0,0,0,1,2.59l-2.4,0H148.86q-16.08,0-32.15,0a5.72,5.72,0,0,1-3.39-.86,64.91,64.91,0,0,1-19.37-20c-.51-.82-1.71-1.71-1.14-2.7s1.9-.44,2.89-.44H333.91c.71,0,1.43,0,2.15,0C336.54,312.5,336.71,312.88,336.84,313.27Z"/><path class="cls-5" d="M252.08,266.28c-1.59.75-3.2,1.47-4.75,2.27a26.73,26.73,0,0,1-20.7,1.68c-3.22-1-6.31-2.3-9.42-3.54a30.51,30.51,0,0,0-9-2.28c-3.85-.3-7.38,1.06-10.87,2.5-4,1.65-7.91,3.42-12.21,4.21A28.38,28.38,0,0,1,168,269c-2.7-1.21-5.41-2.4-8.11-3.58a19,19,0,0,0-14-.69c-3.79,1.26-7.56,2.58-11.37,3.79a32.2,32.2,0,0,1-23.82-1.28c-2.18-1-4.36-2-6.52-3a28.85,28.85,0,0,0-6.13-2,6.21,6.21,0,0,0-2.84.1,44.92,44.92,0,0,0-9.68,3.48,41.77,41.77,0,0,1-8.29,3.13A31.15,31.15,0,0,1,60,268.27c-2.43-.77-4.92-1.46-7.26-2.46-4.23-1.81-8.37-1.44-12.61-.1a101,101,0,0,1-12.2,3.48c-3.61.66-7.22,1.33-10.92.49a15.28,15.28,0,0,0-2.63-.1c.28-8.11,3-15.14,9.21-20.59a16,16,0,0,1,11-3.85q80.7.06,161.4,0c7.83,0,15.66,0,23.5,0a5.89,5.89,0,0,1,3.56,1.08c9,6.15,18,12.25,26.94,18.38C250.77,265.1,251.4,265.72,252.08,266.28Z"/><path class="cls-7" d="M14.8,168c-1.27-2.57-.54-4.82,1.2-6.85a14,14,0,0,1,4.4-3.28,28.08,28.08,0,0,1,12.71-3c8.4,0,16.79,0,25.19,0q153.76,0,307.52,0c4.52,0,8.95.3,13.18,2a16.32,16.32,0,0,1,6.83,4.72,5.75,5.75,0,0,1,1,6.47l-3.12,0H100.43Z"/><path class="cls-5" d="M336.84,313.27c-.13-.39-.3-.77-.78-.79-.72,0-1.44,0-2.15,0H95.7c-1,0-2.35-.52-2.89.44s.63,1.88,1.14,2.7a64.91,64.91,0,0,0,19.37,20,5.72,5.72,0,0,0,3.39.86q16.08,0,32.15,0H333.09l2.4,0c.7,1.34,1.35,2.71,2.11,4,.54.93.36,1.43-.61,1.83a63.73,63.73,0,0,1-7.69,2.7,68.18,68.18,0,0,1-18.24,2.55q-110.16,0-220.31,0c-13.3,0-25.64-3.41-36.65-11C46.68,331.27,41,324.7,38,316.08c-1.67-4.78-1.47-4,2.88-4L334.34,312a11.16,11.16,0,0,1,2.39.08C337.62,312.27,337.3,312.82,336.84,313.27Z"/><path class="cls-8" d="M200.78,203.43q-72.83,0-145.65,0a31.57,31.57,0,0,1-12.22-1.95,12.92,12.92,0,0,1-4.59-3c-1.06-1.12-1.08-1.74-.12-2.91A9.34,9.34,0,0,1,41,193.38a25,25,0,0,1,11-2.85c1.27-.07,2.56,0,3.84,0H346a36.71,36.71,0,0,1,9.75,1,16.28,16.28,0,0,1,7.2,3.65c1.57,1.51,1.53,2.23-.05,3.76a15.55,15.55,0,0,1-6.74,3.51,33,33,0,0,1-9.5,1.06q-34.43,0-68.86,0Z"/><path class="cls-4" d="M14.8,168l85.63,0H383.69l3.12,0c-1.29,3.17-4.12,4.58-6.95,5.88A30.25,30.25,0,0,1,367,176.45H35.76a34.83,34.83,0,0,1-12.49-1.86C19.79,173.28,16.59,171.53,14.8,168Z"/><path class="cls-2" d="M496.66,155.68l-1-.06a2.87,2.87,0,0,0-1.87-.24c-8.71,0-17.43-.06-26.14-.06H402.88c-1.28,0-2.56.06-3.84.1-4.5-7-11.08-11.11-19-13.35-.93-.27-1.93-.36-1.94-1.7,0-.77.23-1.24,1.06-1.25h2.16q52.56,0,105.12,0a36.24,36.24,0,0,0,8.11-.69,28.46,28.46,0,0,0,21.75-32.56,5.7,5.7,0,0,1-.32-2.35c3.09,1.25,5.13,3.74,7.07,6.26a28.3,28.3,0,0,1-.1,34.36,66.84,66.84,0,0,1-4.82,5,28.22,28.22,0,0,1-14.35,6,1.33,1.33,0,0,0-1.42.27l0,0C500.48,155.41,498.54,155,496.66,155.68Z"/><path class="cls-5" d="M23.7,223.49a1.27,1.27,0,0,0,1.39,1h2.16q99.07,0,198.13,0a10.48,10.48,0,0,1,6.24,1.93q25.09,17.22,50.27,34.35l20,13.65a3.88,3.88,0,0,0,2.84,1c-1.61,1.44-3.56,2.41-5.25,3.74a2,2,0,0,1-2.78,0c-3.2-2.26-6.46-4.44-9.7-6.65q-29.55-20.12-59.09-40.28a7.78,7.78,0,0,0-4.67-1.4q-90.12,0-180.23,0a40.28,40.28,0,0,1-10.94-1.15A18.34,18.34,0,0,1,24.37,226C23.68,225.38,22.52,224.7,23.7,223.49Z"/><path class="cls-2" d="M441,35.9c1.62.39,2.51,2,4.06,2.49a5.69,5.69,0,0,0,1.31,1.69A26.28,26.28,0,0,1,451,46.72c5,10.62,4,20.68-2.84,30.18a16.25,16.25,0,0,1-4,4.1c-.9.6-.38,1,.19,1.37-1.58.4-3.17,0-4.76,0-25.57,0-51.15,0-76.72.08a4.31,4.31,0,0,1-4.24-2.29c-1.25-2.12-2.73-4.1-4.05-6.18a3.4,3.4,0,0,1-.89-1.93,5.08,5.08,0,0,1,2.62-.26c18.46,0,36.93,0,55.39,0a42.52,42.52,0,0,0,10-1,23.27,23.27,0,0,0,8.2-4.07,28.68,28.68,0,0,0,7.82-8.55c4.06-6.84,5.45-14,3.27-21.79A1.3,1.3,0,0,1,441,35.9Z"/><path class="cls-2" d="M544.5,49a31.33,31.33,0,0,1,1.68,12.48,27.18,27.18,0,0,1-10.83,20.51,27,27,0,0,1-18.05,5.91c-3-.1-6.07,0-9.11,0-.75,0-1.68-.28-1.92.88a28.9,28.9,0,0,0-13.54-6,30.55,30.55,0,0,0-6.41-.22,6.17,6.17,0,0,1-2.6-.1c.39-.49,1.29,0,1.61-.9a20.69,20.69,0,0,1-4.06-4,25.57,25.57,0,0,1-3.29-5c-.7-1.4-1.65-2.76-1.45-4.46a2.18,2.18,0,0,1,1.33.45,29.17,29.17,0,0,0,14.07,3.28c4.71,0,9.42,0,14.13,0a28.42,28.42,0,0,0,28-32.09c-.14-1.1-.62-2.16-.38-3.3,1.24,0,2,.91,2.8,1.61,2.46,2,4.2,4.68,6.22,7.09h0A17.42,17.42,0,0,0,544.5,49Z"/><path class="cls-2" d="M401.69,162.59c3.34,1.29,5.69,3.79,7.76,6.53,7.54,10,4.77,22.63-5.06,30-1.91,1.44-3.95,2.68-6,4.15h1.74c5.68,0,11.35,0,17,0,1.25,0,2.57-.21,3.73.53-7.67,0-15.34.17-23-.12-5.92-.23-11.82-.06-17.73-.21a7.75,7.75,0,0,1-2.92-.27c1.58-4.45,1.73-8.94-.54-13.25a8.6,8.6,0,0,1,2.93-1,33.82,33.82,0,0,0,15.21-8.26c4.69-4.59,7.19-10.09,6.82-16.75A13.79,13.79,0,0,1,401.69,162.59Z"/><path class="cls-5" d="M386.77,266.29c-1.56.21-2.77,1.16-4.09,1.89a44,44,0,0,1-9.78,4.44,25.12,25.12,0,0,1-11.6.08c-3.51-.7-7-1.56-10.5-2.36a41.31,41.31,0,0,0-8.5-1.23c-.62,0-1.33.08-1.53-.78,3.54-2.43,7.1-4.86,10.63-7.31a3.75,3.75,0,0,1,2.25-.61h30.13c1.84,0,2.19.17,2.35,1.93C386.25,263.69,387.08,264.9,386.77,266.29Z"/><path class="cls-2" d="M463.58,370.74a7.82,7.82,0,0,0-3.37,0,4.81,4.81,0,0,0-2.41.18h-.94c-2.28-.63-4.6-.2-6.88-.19-3.66,0-7.34.23-10.93-.45a28.59,28.59,0,0,1-14.14-7.11c-.53-.48-1.08-.93-1.63-1.4-1.85-2.63-3.88-5.14-5.1-8.17a6.12,6.12,0,0,1-.73-2.7c.89-.19,1.48.48,2.17.81a26.78,26.78,0,0,0,11.54,2.87c15.67,0,31.33.23,47,0,16.39-.27,29-14.91,27.28-31.19-.15-1.42-.68-2.8-.49-4.25.9-.1,1.43.53,2.06,1,3.09,2.35,5.23,5.49,7.29,8.7a6.69,6.69,0,0,0,1.33,2.35,2.74,2.74,0,0,0,.59,1.49c.84,3.93,1.79,7.84,1.54,11.91a3.39,3.39,0,0,0-.28,2.42,62.83,62.83,0,0,1-2.26,7.05,36,36,0,0,1-5.58,8.28,5,5,0,0,0-1.5,1.42l-1,.88-4.29,2.6c-4.23,2.55-8.85,3.39-13.73,3.5-4.68.11-9.36-.21-14,.21a7.34,7.34,0,0,0-2.43,0l-.95.05C469,370.74,466.31,370.27,463.58,370.74Z"/><path class="cls-1" d="M409.85,308.59a28.29,28.29,0,0,1,18.28-10.45,31.19,31.19,0,0,1,4.54-.28c14.54,0,29.09.21,43.62-.05a28.84,28.84,0,0,1,27.95,19.74,13.65,13.65,0,0,0,.7,1.51c-.19,1.45.34,2.83.49,4.25,1.69,16.28-10.89,30.92-27.28,31.19-15.66.27-31.32.09-47,0a26.78,26.78,0,0,1-11.54-2.87c-.69-.33-1.28-1-2.17-.81-1.56-1.7-3.62-2.8-5.23-4.47q-10.59-10.92-7.86-25.84c.32-1.78.8-3.52,1.21-5.28l-.05,0c.56-.13.43-.61.49-1l0,0,.56-.44A42.73,42.73,0,0,0,409.85,308.59Zm44.59,31.77c7.67,0,15.35.11,23,0a13.33,13.33,0,0,0,12.73-8.6c2.36-5.52,1.32-10.69-2.67-15.14A14,14,0,0,0,476.57,312H432.7c-.4,0-.8,0-1.2,0-5.54.46-9.72,3.06-12.15,8.1a14.07,14.07,0,0,0,12.55,20.17C439.41,340.46,446.93,340.36,454.44,340.36Z"/><path class="cls-6" d="M557.64,217.82q33.24,0,66.48,0A14.12,14.12,0,0,1,625.51,246c-1,.09-1.92.07-2.88.07H492.56a22.13,22.13,0,0,1-4.06-.23,14.12,14.12,0,0,1,2.43-28Q524.29,217.78,557.64,217.82Z"/><path class="cls-1" d="M512.53,15.63a.81.81,0,0,0,.76.19,16.62,16.62,0,0,0,4,1.44A58.39,58.39,0,0,1,523.35,21c4.12,3.42,7.48,7.34,8.94,12.64a6.6,6.6,0,0,0,1.37,2.7c-.24,1.14.24,2.2.38,3.3a28.42,28.42,0,0,1-28,32.09c-4.71,0-9.42,0-14.13,0a29.17,29.17,0,0,1-14.07-3.28,2.18,2.18,0,0,0-1.33-.45c-.61-.5-1.21-1-1.84-1.5-9.07-6.89-13.06-15.94-11.67-27.3.07-.63.1-1.26.15-1.9a34.86,34.86,0,0,1,4.49-10c5.43-7.64,12.83-11.88,22.19-12.28,5.9-.25,11.81-.06,17.71,0C509.22,15.15,510.88,15.45,512.53,15.63ZM498.47,57.55c2.56,0,5.11.05,7.67,0A14.13,14.13,0,0,0,506,29.29q-7.54-.09-15.09,0a14.12,14.12,0,0,0-.12,28.24C493.36,57.6,495.92,57.55,498.47,57.55Z"/><path class="cls-9" d="M167.47,35.5a13.94,13.94,0,0,1,14.44,14.09,14.39,14.39,0,1,1-28.78.07C153,42,160.14,34.84,167.47,35.5Z"/><path class="cls-9" d="M291.11,89.24a8.7,8.7,0,0,1-8.71,8.88,8.84,8.84,0,0,1-8.8-8.83c-.14-3.88,3.55-8.92,8.89-8.69C287.45,80.8,291.11,84.3,291.11,89.24Z"/><path class="cls-9" d="M201.47,98.43a5.11,5.11,0,0,1,5.18,5.36,5.34,5.34,0,0,1-5.29,5.35A5.69,5.69,0,0,1,196,103.8,5.34,5.34,0,0,1,201.47,98.43Z"/><path class="cls-9" d="M243.31,54.53a5,5,0,0,1-5.07-4.69,5.16,5.16,0,0,1,5.06-5.05c2.4.05,4.87,2.57,4.72,4.81C247.83,52.55,246.17,54.49,243.31,54.53Z"/><path class="cls-9" d="M117.29,85a4.29,4.29,0,0,1,4.36,4.38,4.43,4.43,0,0,1-4.36,4.46,4.36,4.36,0,0,1-4.46-4.57A4.29,4.29,0,0,1,117.29,85Z"/><path class="cls-10" d="M454.44,340.36c-7.51,0-15,.1-22.54,0a14.07,14.07,0,0,1-12.55-20.17c2.43-5,6.61-7.64,12.15-8.1.4,0,.8,0,1.2,0h43.87a14,14,0,0,1,10.95,4.55c4,4.45,5,9.62,2.67,15.14a13.33,13.33,0,0,1-12.73,8.6C469.79,340.47,462.11,340.36,454.44,340.36Z"/><path class="cls-10" d="M498.47,57.55c-2.55,0-5.11.05-7.66,0a14.12,14.12,0,0,1,.12-28.24q7.54-.11,15.09,0a14.13,14.13,0,0,1,.12,28.25C503.58,57.6,501,57.55,498.47,57.55Z"/></g></g></svg>